<?xml version="1.0" encoding="utf-8"?>
<!-- Generator: Adobe Illustrator 23.0.4, SVG Export Plug-In . SVG Version: 6.00 Build 0)  -->
<svg version="1.1" id="Layer_1" xmlns="http://www.w3.org/2000/svg" xmlns:xlink="http://www.w3.org/1999/xlink" x="0px" y="0px"
	 viewBox="0 0 576 183.6000061" style="enable-background:new 0 0 576 183.6000061;" xml:space="preserve">
<style type="text/css">
	.st0{fill:#00FF85;}
	.st1{fill:#010101;}
</style>
<g>
	<g>
		<g>
			<rect x="6.9661837" y="67.9940338" class="st0" width="31.2322502" height="11.9091663"/>
			<rect x="6.9661837" y="91.8123627" class="st0" width="31.2322502" height="11.9091663"/>
			<rect x="6.8830485" y="115.1737366" class="st0" width="27.7555866" height="11.9091663"/>
			<rect x="6.9661837" y="91.8123627" class="st0" width="78.7949448" height="11.9091663"/>
			<rect x="46.547802" y="115.1737366" class="st0" width="39.2133293" height="11.9091663"/>
			<rect x="46.547802" y="138.9920654" class="st0" width="103.7215652" height="11.9091663"/>
			<rect x="97.6702957" y="115.1737366" class="st0" width="52.5990677" height="11.9091663"/>
			<rect x="97.6702957" y="162.8104095" class="st0" width="52.5990677" height="11.9091663"/>
		</g>
	</g>
	<g>
		<g>
			<g>
				<path class="st1" d="M150.2693634,103.7680359H97.1257095V13.7461023h12.2943039v78.7523422h40.84935V103.7680359z"/>
				<path class="st1" d="M201.1010132,103.7680359v-9.2201538c-4.7378693,6.7873154-12.8031769,10.7560654-21.6399231,10.7560654
					c-6.2738037,0-11.5251923-1.6637115-15.6217499-5.1212692c-3.9710693-3.4575577-6.0205078-7.8120346-6.0205078-13.1889038
					c0-10.6282654,6.6595154-17.4155807,20.8731232-20.6175385l22.0256653-5.1212692v-0.8969193
					c0-7.6842346-5.8903961-12.8055077-14.724823-12.8055077c-8.1954346,0-14.34375,4.7378769-15.3684692,11.9085884h-11.2672577
					c0.6389923-6.2737923,3.45755-11.5251884,8.4510193-15.6217422c4.9934845-4.2266769,11.1417999-6.2761154,18.3125-6.2761154
					c16.3908691,0,26.1222076,9.34795,26.1222076,24.2028923v42.001873H201.1010132z M195.2106171,89.6822128
					c3.7154846-3.9687576,5.5070038-8.5788345,5.5070038-14.0858231v-4.7378769l-19.0792999,4.4822769
					c-8.067627,1.9193115-12.1665039,5.5046692-12.1665039,10.6282654c0,6.0181961,4.4822693,9.6035461,12.1665039,9.6035461
					C187.0151978,95.5726013,191.497467,93.6509628,195.2106171,89.6822128z"/>
				<path class="st1" d="M233.2414093,103.7680359h-11.780777V39.1015129H232.72789v9.09235
					c4.6100769-6.7873116,12.0387115-10.6305923,20.6175385-10.6305923c7.556427,0,13.5746155,2.3050385,18.0569153,7.0429115
					c4.47995,4.6100769,6.7849731,10.7583923,6.7849731,18.3125v40.8493538h-11.7807922V65.6071167
					c0-10.8838654-5.7625732-17.2854538-16.005127-17.2854538c-10.244873,0-17.1599884,7.8097076-17.1599884,18.437973V103.7680359z
					"/>
				<path class="st1" d="M294.7059631,95.7004013c-6.1459656-6.4015884-9.217804-14.469223-9.217804-24.0727692
					c0-9.7336693,3.0718384-17.8013,9.3479309-24.3306885c6.2738037-6.5317154,14.0858459-9.7336731,23.5615845-9.7336731
					c9.8591309,0,18.5680847,4.2266769,24.3283691,11.9109116V8.8804283h11.7831116v94.8876038h-11.1417847V92.3706436
					c-5.7626038,8.1954346-14.9827576,12.9333038-25.3554077,12.9333038
					C308.6640015,105.3039474,300.9820862,102.1043167,294.7059631,95.7004013z M304.1840515,87.8883743
					c4.3521423,4.4822693,9.7313538,6.6595078,16.2607422,6.6595078c6.5317078,0,11.9108887-2.1772385,16.1352539-6.6595078
					c4.3544617-4.4799576,6.5317078-9.8591537,6.5317078-16.3908615c0-6.5293884-2.1772461-12.0363846-6.5317078-16.5186615
					c-4.2243652-4.47995-9.6035461-6.6571884-16.1352539-6.6571884c-6.5293884,0-11.9085999,2.3050346-16.2607422,6.7849884
					c-4.3544922,4.4822731-6.5317078,9.8614731-6.5317078,16.3908615
					C297.6523438,78.0292206,299.8295593,83.4084167,304.1840515,87.8883743z"/>
				<path class="st1" d="M371.7899475,95.7004013c-6.1459961-6.4015884-9.217804-14.469223-9.217804-24.0727692
					c0-9.7336693,3.0718079-17.8013,9.3479309-24.3306885c6.2738037-6.5317154,14.0858154-9.7336731,23.5615845-9.7336731
					c9.8591309,0,18.5680847,4.2266769,24.3283691,11.9109116V8.8804283h11.7831116v94.8876038h-11.1418152V92.3706436
					c-5.7625732,8.1954346-14.9827271,12.9333038-25.3554077,12.9333038
					C385.7479858,105.3039474,378.0660706,102.1043167,371.7899475,95.7004013z M381.2680359,87.8883743
					c4.3521423,4.4822693,9.7313538,6.6595078,16.2607422,6.6595078c6.5317078,0,11.9108887-2.1772385,16.1352539-6.6595078
					c4.3544617-4.4799576,6.5317078-9.8591537,6.5317078-16.3908615c0-6.5293884-2.1772461-12.0363846-6.5317078-16.5186615
					c-4.2243652-4.47995-9.6035461-6.6571884-16.1352539-6.6571884c-6.5293884,0-11.9085999,2.3050346-16.2607422,6.7849884
					c-4.3544922,4.4822731-6.5317078,9.8614731-6.5317078,16.3908615
					C374.7363281,78.0292206,376.9135437,83.4084167,381.2680359,87.8883743z"/>
				<path class="st1" d="M449.2619934,47.2969437c6.5293884-6.5317154,14.724823-9.7336731,24.5862732-9.7336731
					c9.8591614,0,18.0545959,3.3297577,24.5863037,9.8614731c6.5293884,6.5293884,9.8591309,14.4692192,9.8591309,23.9449692
					c0,9.6058731-3.3297424,17.6711731-9.8591309,24.2028885c-6.5317078,6.5317154-14.7271423,9.7313461-24.5863037,9.7313461
					c-9.8614502,0-18.0568848-3.1996307-24.5862732-9.7313461c-6.5317383-6.5317154-9.8614807-14.5970154-9.8614807-24.2028885
					C439.4005127,61.7661629,442.7302551,53.8263321,449.2619934,47.2969437z M489.9835205,55.1066513
					c-4.3544617-4.4799538-9.7336426-6.6571884-16.1352539-6.6571884c-6.4039001,0-11.7807922,2.1772346-16.2630615,6.6571884
					c-4.3544617,4.4822731-6.5317078,9.8614731-6.5317078,16.2630615c0,6.5317154,2.1772461,11.9109039,6.5317078,16.3908615
					c4.3544922,4.4822693,9.7313538,6.6595078,16.2630615,6.6595078c6.5293884,0,11.9085999-2.1772385,16.2630615-6.6595078
					c4.3544922-4.4799576,6.5293884-9.8591461,6.5293884-16.3908615
					C496.6407166,64.9681244,494.4658203,59.5889244,489.9835205,55.1066513z"/>
				<path class="st1" d="M519.944397,103.7680359h-12.6777344l23.9473267-32.781723l-22.9226074-31.8848h13.3190308
					l16.9020386,23.5615692l16.9020996-23.5615692h12.5498657l-23.050354,31.757l24.2028809,32.909523h-13.5722656
					l-17.8013306-24.4584961L519.944397,103.7680359z"/>
			</g>
		</g>
	</g>
</g>
</svg>
